<?xml version="1.0" encoding="UTF-8" standalone="no"?>
<!DOCTYPE svg PUBLIC "-//W3C//DTD SVG 1.1//EN"
 "http://www.w3.org/Graphics/SVG/1.1/DTD/svg11.dtd">
<!-- Generated by graphviz version 12.2.1 (20241206.2353)
 -->
<!-- Title: G Pages: 1 -->
<svg width="1020pt" height="1803pt"
 viewBox="0.00 0.00 1019.75 1803.00" xmlns="http://www.w3.org/2000/svg" xmlns:xlink="http://www.w3.org/1999/xlink">
<g id="graph0" class="graph" transform="scale(1 1) rotate(0) translate(4 1799)">
<title>G</title>
<polygon fill="white" stroke="none" points="-4,4 -4,-1799 1015.75,-1799 1015.75,4 -4,4"/>
<g id="clust2" class="cluster">
<title>cluster_d98a4bb7</title>
<polygon fill="none" stroke="black" stroke-dasharray="1,5" points="517,-1000 517,-1586 1003.75,-1586 1003.75,-1000 517,-1000"/>
<text text-anchor="middle" x="760.38" y="-1568.7" font-family="Times New Roman,serif" font-size="14.00">File: _shared</text>
</g>
<g id="clust3" class="cluster">
<title>cluster_66fe0512</title>
<polygon fill="none" stroke="black" stroke-dasharray="1,5" points="590,-1054 590,-1131 732.75,-1131 732.75,-1054 590,-1054"/>
<text text-anchor="middle" x="661.38" y="-1113.7" font-family="Times New Roman,serif" font-size="14.00">Class: PriceBreakdown</text>
</g>
<g id="clust4" class="cluster">
<title>cluster_c45fb348</title>
<polygon fill="none" stroke="black" stroke-dasharray="1,5" points="322.88,-1517 322.88,-1594 468.12,-1594 468.12,-1517 322.88,-1517"/>
<text text-anchor="middle" x="395.5" y="-1576.7" font-family="Times New Roman,serif" font-size="14.00">File: check_inventory</text>
</g>
<g id="clust5" class="cluster">
<title>cluster_5a2a13e3</title>
<polygon fill="none" stroke="black" stroke-dasharray="1,5" points="330.75,-358 330.75,-489 729.38,-489 729.38,-358 330.75,-358"/>
<text text-anchor="middle" x="530.06" y="-471.7" font-family="Times New Roman,serif" font-size="14.00">File: create_order</text>
</g>
<g id="clust6" class="cluster">
<title>cluster_89893d75</title>
<polygon fill="none" stroke="black" stroke-dasharray="1,5" points="324.75,-1602 324.75,-1787 732.75,-1787 732.75,-1602 324.75,-1602"/>
<text text-anchor="middle" x="528.75" y="-1769.7" font-family="Times New Roman,serif" font-size="14.00">File: estimate_price</text>
</g>
<g id="clust7" class="cluster">
<title>cluster_cb07e7db</title>
<polygon fill="none" stroke="black" stroke-dasharray="1,5" points="589.88,-8 589.88,-180 732.88,-180 732.88,-8 589.88,-8"/>
<text text-anchor="middle" x="661.38" y="-162.7" font-family="Times New Roman,serif" font-size="14.00">File: gemini_client</text>
</g>
<g id="clust8" class="cluster">
<title>cluster_99c6c704</title>
<polygon fill="none" stroke="black" stroke-dasharray="1,5" points="597.88,-16 597.88,-147 724.88,-147 724.88,-16 597.88,-16"/>
<text text-anchor="middle" x="661.38" y="-129.7" font-family="Times New Roman,serif" font-size="14.00">Class: GeminiClient</text>
</g>
<g id="clust9" class="cluster">
<title>cluster_d765179b</title>
<polygon fill="none" stroke="black" stroke-dasharray="1,5" points="319.88,-273 319.88,-350 471.12,-350 471.12,-273 319.88,-273"/>
<text text-anchor="middle" x="395.5" y="-332.7" font-family="Times New Roman,serif" font-size="14.00">File: get_order_status</text>
</g>
<g id="clust10" class="cluster">
<title>cluster_49febfd0</title>
<polygon fill="none" stroke="black" stroke-dasharray="1,5" points="318.75,-1432 318.75,-1509 472.25,-1509 472.25,-1432 318.75,-1432"/>
<text text-anchor="middle" x="395.5" y="-1491.7" font-family="Times New Roman,serif" font-size="14.00">File: get_price_for_sku</text>
</g>
<g id="clust11" class="cluster">
<title>cluster_6319830b</title>
<polygon fill="none" stroke="black" stroke-dasharray="1,5" points="314.62,-667 314.62,-744 476.38,-744 476.38,-667 314.62,-667"/>
<text text-anchor="middle" x="395.5" y="-726.7" font-family="Times New Roman,serif" font-size="14.00">File: get_product_details</text>
</g>
<g id="clust12" class="cluster">
<title>cluster_fcdc7e0f</title>
<polygon fill="none" stroke="black" stroke-dasharray="1,5" points="328.88,-1347 328.88,-1424 462.12,-1424 462.12,-1347 328.88,-1347"/>
<text text-anchor="middle" x="395.5" y="-1406.7" font-family="Times New Roman,serif" font-size="14.00">File: list_categories</text>
</g>
<g id="clust13" class="cluster">
<title>cluster_51d480aa</title>
<polygon fill="none" stroke="black" stroke-dasharray="1,5" points="333,-1262 333,-1339 458,-1339 458,-1262 333,-1262"/>
<text text-anchor="middle" x="395.5" y="-1321.7" font-family="Times New Roman,serif" font-size="14.00">File: list_products</text>
</g>
<g id="clust14" class="cluster">
<title>cluster_939a4006</title>
<polygon fill="none" stroke="black" stroke-dasharray="1,5" points="296.25,-1177 296.25,-1254 494.75,-1254 494.75,-1177 296.25,-1177"/>
<text text-anchor="middle" x="395.5" y="-1236.7" font-family="Times New Roman,serif" font-size="14.00">File: list_products_by_category</text>
</g>
<g id="clust15" class="cluster">
<title>cluster_65a31f4e</title>
<polygon fill="none" stroke="black" stroke-dasharray="1,5" points="314.62,-1092 314.62,-1169 476.38,-1169 476.38,-1092 314.62,-1092"/>
<text text-anchor="middle" x="395.5" y="-1151.7" font-family="Times New Roman,serif" font-size="14.00">File: list_products_count</text>
</g>
<g id="clust16" class="cluster">
<title>cluster_9c13e3b3</title>
<polygon fill="none" stroke="black" stroke-dasharray="1,5" points="294,-1007 294,-1084 497,-1084 497,-1007 294,-1007"/>
<text text-anchor="middle" x="395.5" y="-1066.7" font-family="Times New Roman,serif" font-size="14.00">File: list_supported_destinations</text>
</g>
<g id="clust17" class="cluster">
<title>cluster_be72b819</title>
<polygon fill="none" stroke="black" stroke-dasharray="1,5" points="334.88,-582 334.88,-659 456.12,-659 456.12,-582 334.88,-582"/>
<text text-anchor="middle" x="395.5" y="-641.7" font-family="Times New Roman,serif" font-size="14.00">File: list_variants</text>
</g>
<g id="clust18" class="cluster">
<title>cluster_3f8632c8</title>
<polygon fill="none" stroke="black" stroke-dasharray="1,5" points="597.88,-273 597.88,-350 724.88,-350 724.88,-273 597.88,-273"/>
<text text-anchor="middle" x="661.38" y="-332.7" font-family="Times New Roman,serif" font-size="14.00">File: logging_config</text>
</g>
<g id="clust19" class="cluster">
<title>cluster_640c2cf5</title>
<polygon fill="none" stroke="black" stroke-dasharray="1,5" points="84,-188 84,-265 742.88,-265 742.88,-188 84,-188"/>
<text text-anchor="middle" x="413.44" y="-247.7" font-family="Times New Roman,serif" font-size="14.00">File: main</text>
</g>
<g id="clust20" class="cluster">
<title>cluster_58fdc871</title>
<polygon fill="none" stroke="black" stroke-dasharray="1,5" points="320.62,-497 320.62,-574 714.38,-574 714.38,-497 320.62,-497"/>
<text text-anchor="middle" x="517.5" y="-556.7" font-family="Times New Roman,serif" font-size="14.00">File: search_products</text>
</g>
<g id="clust21" class="cluster">
<title>cluster_7a39e2a4</title>
<polygon fill="none" stroke="black" stroke-dasharray="1,5" points="313.12,-922 313.12,-999 477.88,-999 477.88,-922 313.12,-922"/>
<text text-anchor="middle" x="395.5" y="-981.7" font-family="Times New Roman,serif" font-size="14.00">File: suggest_alternatives</text>
</g>
<g id="clust22" class="cluster">
<title>cluster_aa2ea2ee</title>
<polygon fill="none" stroke="black" stroke-dasharray="1,5" points="58.5,-667 58.5,-744 207.5,-744 207.5,-667 58.5,-667"/>
<text text-anchor="middle" x="133" y="-726.7" font-family="Times New Roman,serif" font-size="14.00">File: tool_bindings</text>
</g>
<g id="clust23" class="cluster">
<title>cluster_d46bab2d</title>
<polygon fill="none" stroke="black" stroke-dasharray="1,5" points="313.5,-837 313.5,-914 477.5,-914 477.5,-837 313.5,-837"/>
<text text-anchor="middle" x="395.5" y="-896.7" font-family="Times New Roman,serif" font-size="14.00">File: validate_destination</text>
</g>
<g id="clust24" class="cluster">
<title>cluster_6c2452ed</title>
<polygon fill="none" stroke="black" stroke-dasharray="1,5" points="333.75,-752 333.75,-829 457.25,-829 457.25,-752 333.75,-752"/>
<text text-anchor="middle" x="395.5" y="-811.7" font-family="Times New Roman,serif" font-size="14.00">File: validate_sku</text>
</g>
<!-- Legend -->
<g id="node1" class="node">
<title>Legend</title>
<polygon fill="none" stroke="black" points="1,-158.75 1,-177.25 265,-177.25 265,-158.75 1,-158.75"/>
<text text-anchor="start" x="80.88" y="-162.95" font-family="Times New Roman,serif" font-size="14.00">Code2flow Legend</text>
<polygon fill="none" stroke="black" points="1,-64.75 1,-158.75 265,-158.75 265,-64.75 1,-64.75"/>
<polygon fill="none" stroke="black" points="3,-134.25 3,-156.75 213,-156.75 213,-134.25 3,-134.25"/>
<text text-anchor="start" x="62.25" y="-140.45" font-family="Times New Roman,serif" font-size="14.00">Regular function</text>
<polygon fill="#cccccc" stroke="none" points="213,-134.25 213,-156.75 263,-156.75 263,-134.25 213,-134.25"/>
<polygon fill="none" stroke="black" points="213,-134.25 213,-156.75 263,-156.75 263,-134.25 213,-134.25"/>
<polygon fill="none" stroke="black" points="3,-111.75 3,-134.25 213,-134.25 213,-111.75 3,-111.75"/>
<text text-anchor="start" x="14.25" y="-117.95" font-family="Times New Roman,serif" font-size="14.00">Trunk function (nothing calls this)</text>
<polygon fill="#966f33" stroke="none" points="213,-111.75 213,-134.25 263,-134.25 263,-111.75 213,-111.75"/>
<polygon fill="none" stroke="black" points="213,-111.75 213,-134.25 263,-134.25 263,-111.75 213,-111.75"/>
<polygon fill="none" stroke="black" points="3,-89.25 3,-111.75 213,-111.75 213,-89.25 3,-89.25"/>
<text text-anchor="start" x="6" y="-95.45" font-family="Times New Roman,serif" font-size="14.00">Leaf function (this calls nothing else)</text>
<polygon fill="#6db33f" stroke="none" points="213,-89.25 213,-111.75 263,-111.75 263,-89.25 213,-89.25"/>
<polygon fill="none" stroke="black" points="213,-89.25 213,-111.75 263,-111.75 263,-89.25 213,-89.25"/>
<polygon fill="none" stroke="black" points="3,-66.75 3,-89.25 213,-89.25 213,-66.75 3,-66.75"/>
<text text-anchor="start" x="72.38" y="-72.95" font-family="Times New Roman,serif" font-size="14.00">Function call</text>
<polygon fill="none" stroke="black" points="213,-66.75 213,-89.25 263,-89.25 263,-66.75 213,-66.75"/>
<text text-anchor="start" x="230.88" y="-72.95" font-family="Times New Roman,serif" font-size="14.00">→</text>
<polygon fill="none" stroke="black" points="2,-65.75 2,-157.75 264,-157.75 264,-65.75 2,-65.75"/>
<polygon fill="none" stroke="black" points="0,-63.75 0,-178.25 266,-178.25 266,-63.75 0,-63.75"/>
</g>
<!-- node_263a1ac4 -->
<g id="node2" class="node">
<title>node_263a1ac4</title>
<path fill="#cccccc" stroke="black" d="M694,-1098C694,-1098 627.75,-1098 627.75,-1098 621.75,-1098 615.75,-1092 615.75,-1086 615.75,-1086 615.75,-1074 615.75,-1074 615.75,-1068 621.75,-1062 627.75,-1062 627.75,-1062 694,-1062 694,-1062 700,-1062 706,-1068 706,-1074 706,-1074 706,-1086 706,-1086 706,-1092 700,-1098 694,-1098"/>
<text text-anchor="middle" x="660.88" y="-1074.95" font-family="Times New Roman,serif" font-size="14.00">179: to_dict()</text>
</g>
<!-- node_ffe05053 -->
<g id="node6" class="node">
<title>node_ffe05053</title>
<path fill="#6db33f" stroke="black" d="M983.75,-1098C983.75,-1098 844.75,-1098 844.75,-1098 838.75,-1098 832.75,-1092 832.75,-1086 832.75,-1086 832.75,-1074 832.75,-1074 832.75,-1068 838.75,-1062 844.75,-1062 844.75,-1062 983.75,-1062 983.75,-1062 989.75,-1062 995.75,-1068 995.75,-1074 995.75,-1074 995.75,-1086 995.75,-1086 995.75,-1092 989.75,-1098 983.75,-1098"/>
<text text-anchor="middle" x="914.25" y="-1074.95" font-family="Times New Roman,serif" font-size="14.00">93: _price_to_float_cents()</text>
</g>
<!-- node_263a1ac4&#45;&gt;node_ffe05053 -->
<g id="edge1" class="edge">
<title>node_263a1ac4&#45;&gt;node_ffe05053</title>
<path fill="none" stroke="#f0e442" stroke-width="2" d="M706.47,-1080C706.47,-1080 819.37,-1080 819.37,-1080"/>
<polygon fill="#f0e442" stroke="#f0e442" stroke-width="2" points="819.37,-1083.5 829.37,-1080 819.37,-1076.5 819.37,-1083.5"/>
</g>
<!-- node_f33a931b -->
<g id="node3" class="node">
<title>node_f33a931b</title>
<path fill="#6db33f" stroke="black" d="M982.25,-1044C982.25,-1044 846.25,-1044 846.25,-1044 840.25,-1044 834.25,-1038 834.25,-1032 834.25,-1032 834.25,-1020 834.25,-1020 834.25,-1014 840.25,-1008 846.25,-1008 846.25,-1008 982.25,-1008 982.25,-1008 988.25,-1008 994.25,-1014 994.25,-1020 994.25,-1020 994.25,-1032 994.25,-1032 994.25,-1038 988.25,-1044 982.25,-1044"/>
<text text-anchor="middle" x="914.25" y="-1020.95" font-family="Times New Roman,serif" font-size="14.00">97: _find_product_by_id()</text>
</g>
<!-- node_b58e92c8 -->
<g id="node4" class="node">
<title>node_b58e92c8</title>
<path fill="#6db33f" stroke="black" d="M970.25,-1499C970.25,-1499 858.25,-1499 858.25,-1499 852.25,-1499 846.25,-1493 846.25,-1487 846.25,-1487 846.25,-1475 846.25,-1475 846.25,-1469 852.25,-1463 858.25,-1463 858.25,-1463 970.25,-1463 970.25,-1463 976.25,-1463 982.25,-1469 982.25,-1475 982.25,-1475 982.25,-1487 982.25,-1487 982.25,-1493 976.25,-1499 970.25,-1499"/>
<text text-anchor="middle" x="914.25" y="-1475.95" font-family="Times New Roman,serif" font-size="14.00">13: _format_for_log()</text>
</g>
<!-- node_b0191698 -->
<g id="node5" class="node">
<title>node_b0191698</title>
<path fill="#6db33f" stroke="black" d="M745.75,-1283C745.75,-1283 576,-1283 576,-1283 570,-1283 564,-1277 564,-1271 564,-1271 564,-1259 564,-1259 564,-1253 570,-1247 576,-1247 576,-1247 745.75,-1247 745.75,-1247 751.75,-1247 757.75,-1253 757.75,-1259 757.75,-1259 757.75,-1271 757.75,-1271 757.75,-1277 751.75,-1283 745.75,-1283"/>
<text text-anchor="middle" x="660.88" y="-1259.95" font-family="Times New Roman,serif" font-size="14.00">111: _inventory_index_by_sku()</text>
</g>
<!-- node_f53afb86 -->
<g id="node7" class="node">
<title>node_f53afb86</title>
<path fill="#6db33f" stroke="black" d="M954.88,-1337C954.88,-1337 873.62,-1337 873.62,-1337 867.62,-1337 861.62,-1331 861.62,-1325 861.62,-1325 861.62,-1313 861.62,-1313 861.62,-1307 867.62,-1301 873.62,-1301 873.62,-1301 954.88,-1301 954.88,-1301 960.88,-1301 966.88,-1307 966.88,-1313 966.88,-1313 966.88,-1325 966.88,-1325 966.88,-1331 960.88,-1337 954.88,-1337"/>
<text text-anchor="middle" x="914.25" y="-1313.95" font-family="Times New Roman,serif" font-size="14.00">45: _read_json()</text>
</g>
<!-- node_0879617d -->
<g id="node8" class="node">
<title>node_0879617d</title>
<path fill="#6db33f" stroke="black" d="M727,-1337C727,-1337 594.75,-1337 594.75,-1337 588.75,-1337 582.75,-1331 582.75,-1325 582.75,-1325 582.75,-1313 582.75,-1313 582.75,-1307 588.75,-1301 594.75,-1301 594.75,-1301 727,-1301 727,-1301 733,-1301 739,-1307 739,-1313 739,-1313 739,-1325 739,-1325 739,-1331 733,-1337 727,-1337"/>
<text text-anchor="middle" x="660.88" y="-1313.95" font-family="Times New Roman,serif" font-size="14.00">115: find_price_for_sku()</text>
</g>
<!-- node_edd3c224 -->
<g id="node9" class="node">
<title>node_edd3c224</title>
<path fill="#cccccc" stroke="black" d="M784.75,-1391C784.75,-1391 537,-1391 537,-1391 531,-1391 525,-1385 525,-1379 525,-1379 525,-1367 525,-1367 525,-1361 531,-1355 537,-1355 537,-1355 784.75,-1355 784.75,-1355 790.75,-1355 796.75,-1361 796.75,-1367 796.75,-1367 796.75,-1379 796.75,-1379 796.75,-1385 790.75,-1391 784.75,-1391"/>
<text text-anchor="middle" x="660.88" y="-1367.95" font-family="Times New Roman,serif" font-size="14.00">153: find_sku_for_product_variant_attributes()</text>
</g>
<!-- node_edd3c224&#45;&gt;node_f33a931b -->
<g id="edge6" class="edge">
<title>node_edd3c224&#45;&gt;node_f33a931b</title>
<path fill="none" stroke="#f0e442" stroke-width="2" d="M776.75,-1354.83C776.75,-1283.43 776.75,-1026 776.75,-1026 776.75,-1026 820.84,-1026 820.84,-1026"/>
<polygon fill="#f0e442" stroke="#f0e442" stroke-width="2" points="820.84,-1029.5 830.84,-1026 820.84,-1022.5 820.84,-1029.5"/>
</g>
<!-- node_9c8ae3ad -->
<g id="node10" class="node">
<title>node_9c8ae3ad</title>
<path fill="#6db33f" stroke="black" d="M739.38,-1044C739.38,-1044 582.38,-1044 582.38,-1044 576.38,-1044 570.38,-1038 570.38,-1032 570.38,-1032 570.38,-1020 570.38,-1020 570.38,-1014 576.38,-1008 582.38,-1008 582.38,-1008 739.38,-1008 739.38,-1008 745.38,-1008 751.38,-1014 751.38,-1020 751.38,-1020 751.38,-1032 751.38,-1032 751.38,-1038 745.38,-1044 739.38,-1044"/>
<text text-anchor="middle" x="660.88" y="-1020.95" font-family="Times New Roman,serif" font-size="14.00">78: is_supported_destination()</text>
</g>
<!-- node_863ad4d6 -->
<g id="node11" class="node">
<title>node_863ad4d6</title>
<path fill="#6db33f" stroke="black" d="M745.75,-1175C745.75,-1175 576,-1175 576,-1175 570,-1175 564,-1169 564,-1163 564,-1163 564,-1151 564,-1151 564,-1145 570,-1139 576,-1139 576,-1139 745.75,-1139 745.75,-1139 751.75,-1139 757.75,-1145 757.75,-1151 757.75,-1151 757.75,-1163 757.75,-1163 757.75,-1169 751.75,-1175 745.75,-1175"/>
<text text-anchor="middle" x="660.88" y="-1151.95" font-family="Times New Roman,serif" font-size="14.00">89: list_supported_destinations()</text>
</g>
<!-- node_033fd425 -->
<g id="node12" class="node">
<title>node_033fd425</title>
<path fill="#cccccc" stroke="black" d="M706.38,-1229C706.38,-1229 615.38,-1229 615.38,-1229 609.38,-1229 603.38,-1223 603.38,-1217 603.38,-1217 603.38,-1205 603.38,-1205 603.38,-1199 609.38,-1193 615.38,-1193 615.38,-1193 706.38,-1193 706.38,-1193 712.38,-1193 718.38,-1199 718.38,-1205 718.38,-1205 718.38,-1217 718.38,-1217 718.38,-1223 712.38,-1229 706.38,-1229"/>
<text text-anchor="middle" x="660.88" y="-1205.95" font-family="Times New Roman,serif" font-size="14.00">55: load_catalog()</text>
</g>
<!-- node_033fd425&#45;&gt;node_f53afb86 -->
<g id="edge7" class="edge">
<title>node_033fd425&#45;&gt;node_f53afb86</title>
<path fill="none" stroke="#0072b2" stroke-width="2" d="M718.57,-1211C793.21,-1211 913.75,-1211 913.75,-1211 913.75,-1211 913.75,-1287.65 913.75,-1287.65"/>
<polygon fill="#0072b2" stroke="#0072b2" stroke-width="2" points="910.25,-1287.65 913.75,-1297.65 917.25,-1287.65 910.25,-1287.65"/>
</g>
<!-- node_5c36b3c8 -->
<g id="node13" class="node">
<title>node_5c36b3c8</title>
<path fill="#cccccc" stroke="black" d="M712.75,-1445C712.75,-1445 609,-1445 609,-1445 603,-1445 597,-1439 597,-1433 597,-1433 597,-1421 597,-1421 597,-1415 603,-1409 609,-1409 609,-1409 712.75,-1409 712.75,-1409 718.75,-1409 724.75,-1415 724.75,-1421 724.75,-1421 724.75,-1433 724.75,-1433 724.75,-1439 718.75,-1445 712.75,-1445"/>
<text text-anchor="middle" x="660.88" y="-1421.95" font-family="Times New Roman,serif" font-size="14.00">59: load_inventory()</text>
</g>
<!-- node_5c36b3c8&#45;&gt;node_f53afb86 -->
<g id="edge8" class="edge">
<title>node_5c36b3c8&#45;&gt;node_f53afb86</title>
<path fill="none" stroke="#000000" stroke-width="2" d="M725.01,-1427C799.93,-1427 913.75,-1427 913.75,-1427 913.75,-1427 913.75,-1350.35 913.75,-1350.35"/>
<polygon fill="#000000" stroke="#000000" stroke-width="2" points="917.25,-1350.35 913.75,-1340.35 910.25,-1350.35 917.25,-1350.35"/>
</g>
<!-- node_eaa358d6 -->
<g id="node14" class="node">
<title>node_eaa358d6</title>
<path fill="#966f33" stroke="black" d="M707.5,-1499C707.5,-1499 614.25,-1499 614.25,-1499 608.25,-1499 602.25,-1493 602.25,-1487 602.25,-1487 602.25,-1475 602.25,-1475 602.25,-1469 608.25,-1463 614.25,-1463 614.25,-1463 707.5,-1463 707.5,-1463 713.5,-1463 719.5,-1469 719.5,-1475 719.5,-1475 719.5,-1487 719.5,-1487 719.5,-1493 713.5,-1499 707.5,-1499"/>
<text text-anchor="middle" x="660.88" y="-1475.95" font-family="Times New Roman,serif" font-size="14.00">23: log_tool_call()</text>
</g>
<!-- node_eaa358d6&#45;&gt;node_b58e92c8 -->
<g id="edge9" class="edge">
<title>node_eaa358d6&#45;&gt;node_b58e92c8</title>
<path fill="none" stroke="#d55e00" stroke-width="2" d="M719.96,-1481C719.96,-1481 833.07,-1481 833.07,-1481"/>
<polygon fill="#d55e00" stroke="#d55e00" stroke-width="2" points="833.07,-1484.5 843.07,-1481 833.07,-1477.5 833.07,-1484.5"/>
</g>
<!-- node_e830690b -->
<g id="node15" class="node">
<title>node_e830690b</title>
<path fill="#6db33f" stroke="black" d="M726.62,-1553C726.62,-1553 595.12,-1553 595.12,-1553 589.12,-1553 583.12,-1547 583.12,-1541 583.12,-1541 583.12,-1529 583.12,-1529 583.12,-1523 589.12,-1517 595.12,-1517 595.12,-1517 726.62,-1517 726.62,-1517 732.62,-1517 738.62,-1523 738.62,-1529 738.62,-1529 738.62,-1541 738.62,-1541 738.62,-1547 732.62,-1553 726.62,-1553"/>
<text text-anchor="middle" x="660.88" y="-1529.95" font-family="Times New Roman,serif" font-size="14.00">146: normalize_country()</text>
</g>
<!-- node_622308b8 -->
<g id="node16" class="node">
<title>node_622308b8</title>
<path fill="#cccccc" stroke="black" d="M448.12,-1561C448.12,-1561 342.88,-1561 342.88,-1561 336.88,-1561 330.88,-1555 330.88,-1549 330.88,-1549 330.88,-1537 330.88,-1537 330.88,-1531 336.88,-1525 342.88,-1525 342.88,-1525 448.12,-1525 448.12,-1525 454.12,-1525 460.12,-1531 460.12,-1537 460.12,-1537 460.12,-1549 460.12,-1549 460.12,-1555 454.12,-1561 448.12,-1561"/>
<text text-anchor="middle" x="395.5" y="-1537.95" font-family="Times New Roman,serif" font-size="14.00">7: check_inventory()</text>
</g>
<!-- node_622308b8&#45;&gt;node_b0191698 -->
<g id="edge11" class="edge">
<title>node_622308b8&#45;&gt;node_b0191698</title>
<path fill="none" stroke="#000000" stroke-width="2" d="M460.35,-1534.33C466.07,-1534.33 469.75,-1534.33 469.75,-1534.33 469.75,-1534.33 469.75,-1276.5 469.75,-1276.5 469.75,-1276.5 550.61,-1276.5 550.61,-1276.5"/>
<polygon fill="#000000" stroke="#000000" stroke-width="2" points="550.61,-1280 560.61,-1276.5 550.61,-1273 550.61,-1280"/>
</g>
<!-- node_622308b8&#45;&gt;node_5c36b3c8 -->
<g id="edge12" class="edge">
<title>node_622308b8&#45;&gt;node_5c36b3c8</title>
<path fill="none" stroke="#000000" stroke-width="2" d="M460.55,-1543.67C472.22,-1543.67 480.75,-1543.67 480.75,-1543.67 480.75,-1543.67 480.75,-1424.5 480.75,-1424.5 480.75,-1424.5 583.58,-1424.5 583.58,-1424.5"/>
<polygon fill="#000000" stroke="#000000" stroke-width="2" points="583.58,-1428 593.58,-1424.5 583.58,-1421 583.58,-1428"/>
</g>
<!-- node_97f5a6bb -->
<g id="node17" class="node">
<title>node_97f5a6bb</title>
<path fill="#6db33f" stroke="black" d="M707.12,-402C707.12,-402 614.62,-402 614.62,-402 608.62,-402 602.62,-396 602.62,-390 602.62,-390 602.62,-378 602.62,-378 602.62,-372 608.62,-366 614.62,-366 614.62,-366 707.12,-366 707.12,-366 713.12,-366 719.12,-372 719.12,-378 719.12,-378 719.12,-390 719.12,-390 719.12,-396 713.12,-402 707.12,-402"/>
<text text-anchor="middle" x="660.88" y="-378.95" font-family="Times New Roman,serif" font-size="14.00">14: _read_orders()</text>
</g>
<!-- node_23db8368 -->
<g id="node18" class="node">
<title>node_23db8368</title>
<path fill="#6db33f" stroke="black" d="M709.38,-456C709.38,-456 612.38,-456 612.38,-456 606.38,-456 600.38,-450 600.38,-444 600.38,-444 600.38,-432 600.38,-432 600.38,-426 606.38,-420 612.38,-420 612.38,-420 709.38,-420 709.38,-420 715.38,-420 721.38,-426 721.38,-432 721.38,-432 721.38,-444 721.38,-444 721.38,-450 715.38,-456 709.38,-456"/>
<text text-anchor="middle" x="660.88" y="-432.95" font-family="Times New Roman,serif" font-size="14.00">21: _write_orders()</text>
</g>
<!-- node_12a05c63 -->
<g id="node19" class="node">
<title>node_12a05c63</title>
<path fill="#cccccc" stroke="black" d="M440.25,-456C440.25,-456 350.75,-456 350.75,-456 344.75,-456 338.75,-450 338.75,-444 338.75,-444 338.75,-432 338.75,-432 338.75,-426 344.75,-420 350.75,-420 350.75,-420 440.25,-420 440.25,-420 446.25,-420 452.25,-426 452.25,-432 452.25,-432 452.25,-444 452.25,-444 452.25,-450 446.25,-456 440.25,-456"/>
<text text-anchor="middle" x="395.5" y="-432.95" font-family="Times New Roman,serif" font-size="14.00">32: create_order()</text>
</g>
<!-- node_12a05c63&#45;&gt;node_97f5a6bb -->
<g id="edge13" class="edge">
<title>node_12a05c63&#45;&gt;node_97f5a6bb</title>
<path fill="none" stroke="#009e73" stroke-width="2" d="M395.75,-419.72C395.75,-404.05 395.75,-384 395.75,-384 395.75,-384 589.34,-384 589.34,-384"/>
<polygon fill="#009e73" stroke="#009e73" stroke-width="2" points="589.34,-387.5 599.34,-384 589.34,-380.5 589.34,-387.5"/>
</g>
<!-- node_12a05c63&#45;&gt;node_23db8368 -->
<g id="edge14" class="edge">
<title>node_12a05c63&#45;&gt;node_23db8368</title>
<path fill="none" stroke="#009e73" stroke-width="2" d="M452.43,-438C452.43,-438 586.85,-438 586.85,-438"/>
<polygon fill="#009e73" stroke="#009e73" stroke-width="2" points="586.85,-441.5 596.85,-438 586.85,-434.5 586.85,-441.5"/>
</g>
<!-- node_565b043c -->
<g id="node20" class="node">
<title>node_565b043c</title>
<path fill="#6db33f" stroke="black" d="M712.38,-1646C712.38,-1646 609.38,-1646 609.38,-1646 603.38,-1646 597.38,-1640 597.38,-1634 597.38,-1634 597.38,-1622 597.38,-1622 597.38,-1616 603.38,-1610 609.38,-1610 609.38,-1610 712.38,-1610 712.38,-1610 718.38,-1610 724.38,-1616 724.38,-1622 724.38,-1622 724.38,-1634 724.38,-1634 724.38,-1640 718.38,-1646 712.38,-1646"/>
<text text-anchor="middle" x="660.88" y="-1622.95" font-family="Times New Roman,serif" font-size="14.00">14: _calc_discount()</text>
</g>
<!-- node_68c61a15 -->
<g id="node21" class="node">
<title>node_68c61a15</title>
<path fill="#6db33f" stroke="black" d="M712.75,-1700C712.75,-1700 609,-1700 609,-1700 603,-1700 597,-1694 597,-1688 597,-1688 597,-1676 597,-1676 597,-1670 603,-1664 609,-1664 609,-1664 712.75,-1664 712.75,-1664 718.75,-1664 724.75,-1670 724.75,-1676 724.75,-1676 724.75,-1688 724.75,-1688 724.75,-1694 718.75,-1700 712.75,-1700"/>
<text text-anchor="middle" x="660.88" y="-1676.95" font-family="Times New Roman,serif" font-size="14.00">28: _calc_shipping()</text>
</g>
<!-- node_276bef55 -->
<g id="node22" class="node">
<title>node_276bef55</title>
<path fill="#6db33f" stroke="black" d="M697.75,-1754C697.75,-1754 624,-1754 624,-1754 618,-1754 612,-1748 612,-1742 612,-1742 612,-1730 612,-1730 612,-1724 618,-1718 624,-1718 624,-1718 697.75,-1718 697.75,-1718 703.75,-1718 709.75,-1724 709.75,-1730 709.75,-1730 709.75,-1742 709.75,-1742 709.75,-1748 703.75,-1754 697.75,-1754"/>
<text text-anchor="middle" x="660.88" y="-1730.95" font-family="Times New Roman,serif" font-size="14.00">21: _calc_tax()</text>
</g>
<!-- node_01271f6c -->
<g id="node23" class="node">
<title>node_01271f6c</title>
<path fill="#cccccc" stroke="black" d="M446.25,-1646C446.25,-1646 344.75,-1646 344.75,-1646 338.75,-1646 332.75,-1640 332.75,-1634 332.75,-1634 332.75,-1622 332.75,-1622 332.75,-1616 338.75,-1610 344.75,-1610 344.75,-1610 446.25,-1610 446.25,-1610 452.25,-1610 458.25,-1616 458.25,-1622 458.25,-1622 458.25,-1634 458.25,-1634 458.25,-1640 452.25,-1646 446.25,-1646"/>
<text text-anchor="middle" x="395.5" y="-1622.95" font-family="Times New Roman,serif" font-size="14.00">39: estimate_price()</text>
</g>
<!-- node_01271f6c&#45;&gt;node_263a1ac4 -->
<g id="edge15" class="edge">
<title>node_01271f6c&#45;&gt;node_263a1ac4</title>
<path fill="none" stroke="#f0e442" stroke-width="2" d="M458.55,-1620.29C480.96,-1620.29 500.75,-1620.29 500.75,-1620.29 500.75,-1620.29 500.75,-1086 500.75,-1086 500.75,-1086 602.39,-1086 602.39,-1086"/>
<polygon fill="#f0e442" stroke="#f0e442" stroke-width="2" points="602.39,-1089.5 612.39,-1086 602.39,-1082.5 602.39,-1089.5"/>
</g>
<!-- node_01271f6c&#45;&gt;node_0879617d -->
<g id="edge16" class="edge">
<title>node_01271f6c&#45;&gt;node_0879617d</title>
<path fill="none" stroke="#f0e442" stroke-width="2" d="M458.73,-1615.14C468.68,-1615.14 475.75,-1615.14 475.75,-1615.14 475.75,-1615.14 475.75,-1326.67 475.75,-1326.67 475.75,-1326.67 569.34,-1326.67 569.34,-1326.67"/>
<polygon fill="#f0e442" stroke="#f0e442" stroke-width="2" points="569.34,-1330.17 579.34,-1326.67 569.34,-1323.17 569.34,-1330.17"/>
</g>
<!-- node_01271f6c&#45;&gt;node_edd3c224 -->
<g id="edge17" class="edge">
<title>node_01271f6c&#45;&gt;node_edd3c224</title>
<path fill="none" stroke="#f0e442" stroke-width="2" d="M458.5,-1630.57C502.63,-1630.57 553.75,-1630.57 553.75,-1630.57 553.75,-1630.57 553.75,-1404.14 553.75,-1404.14"/>
<polygon fill="#f0e442" stroke="#f0e442" stroke-width="2" points="557.25,-1404.14 553.75,-1394.14 550.25,-1404.14 557.25,-1404.14"/>
</g>
<!-- node_01271f6c&#45;&gt;node_033fd425 -->
<g id="edge18" class="edge">
<title>node_01271f6c&#45;&gt;node_033fd425</title>
<path fill="none" stroke="#f0e442" stroke-width="2" d="M458.59,-1625.43C486.34,-1625.43 512.75,-1625.43 512.75,-1625.43 512.75,-1625.43 512.75,-1217.89 512.75,-1217.89 512.75,-1217.89 590.15,-1217.89 590.15,-1217.89"/>
<polygon fill="#f0e442" stroke="#f0e442" stroke-width="2" points="590.15,-1221.39 600.15,-1217.89 590.15,-1214.39 590.15,-1221.39"/>
</g>
<!-- node_01271f6c&#45;&gt;node_e830690b -->
<g id="edge19" class="edge">
<title>node_01271f6c&#45;&gt;node_e830690b</title>
<path fill="none" stroke="#f0e442" stroke-width="2" d="M458.57,-1635.71C515.29,-1635.71 589.75,-1635.71 589.75,-1635.71 589.75,-1635.71 589.75,-1566.5 589.75,-1566.5"/>
<polygon fill="#f0e442" stroke="#f0e442" stroke-width="2" points="593.25,-1566.5 589.75,-1556.5 586.25,-1566.5 593.25,-1566.5"/>
</g>
<!-- node_01271f6c&#45;&gt;node_565b043c -->
<g id="edge20" class="edge">
<title>node_01271f6c&#45;&gt;node_565b043c</title>
<path fill="none" stroke="#f0e442" stroke-width="2" d="M458.73,-1640.86C458.73,-1640.86 584.19,-1640.86 584.19,-1640.86"/>
<polygon fill="#f0e442" stroke="#f0e442" stroke-width="2" points="584.19,-1644.36 594.19,-1640.86 584.19,-1637.36 584.19,-1644.36"/>
</g>
<!-- node_01271f6c&#45;&gt;node_68c61a15 -->
<g id="edge21" class="edge">
<title>node_01271f6c&#45;&gt;node_68c61a15</title>
<path fill="none" stroke="#f0e442" stroke-width="2" d="M416.75,-1646.28C416.75,-1661.95 416.75,-1682 416.75,-1682 416.75,-1682 583.71,-1682 583.71,-1682"/>
<polygon fill="#f0e442" stroke="#f0e442" stroke-width="2" points="583.71,-1685.5 593.71,-1682 583.71,-1678.5 583.71,-1685.5"/>
</g>
<!-- node_01271f6c&#45;&gt;node_276bef55 -->
<g id="edge22" class="edge">
<title>node_01271f6c&#45;&gt;node_276bef55</title>
<path fill="none" stroke="#f0e442" stroke-width="2" d="M374.75,-1646.32C374.75,-1677.13 374.75,-1736 374.75,-1736 374.75,-1736 598.66,-1736 598.66,-1736"/>
<polygon fill="#f0e442" stroke="#f0e442" stroke-width="2" points="598.66,-1739.5 608.66,-1736 598.66,-1732.5 598.66,-1739.5"/>
</g>
<!-- node_dd5572a5 -->
<g id="node24" class="node">
<title>node_dd5572a5</title>
<path fill="#6db33f" stroke="black" d="M691,-60C691,-60 630.75,-60 630.75,-60 624.75,-60 618.75,-54 618.75,-48 618.75,-48 618.75,-36 618.75,-36 618.75,-30 624.75,-24 630.75,-24 630.75,-24 691,-24 691,-24 697,-24 703,-30 703,-36 703,-36 703,-48 703,-48 703,-54 697,-60 691,-60"/>
<text text-anchor="middle" x="660.88" y="-36.95" font-family="Times New Roman,serif" font-size="14.00">9: __init__()</text>
</g>
<!-- node_f51090c8 -->
<g id="node25" class="node">
<title>node_f51090c8</title>
<path fill="#6db33f" stroke="black" d="M698.12,-114C698.12,-114 623.62,-114 623.62,-114 617.62,-114 611.62,-108 611.62,-102 611.62,-102 611.62,-90 611.62,-90 611.62,-84 617.62,-78 623.62,-78 623.62,-78 698.12,-78 698.12,-78 704.12,-78 710.12,-84 710.12,-90 710.12,-90 710.12,-102 710.12,-102 710.12,-108 704.12,-114 698.12,-114"/>
<text text-anchor="middle" x="660.88" y="-90.95" font-family="Times New Roman,serif" font-size="14.00">18: start_chat()</text>
</g>
<!-- node_6fd2c11b -->
<g id="node26" class="node">
<title>node_6fd2c11b</title>
<path fill="#6db33f" stroke="black" d="M451.12,-317C451.12,-317 339.88,-317 339.88,-317 333.88,-317 327.88,-311 327.88,-305 327.88,-305 327.88,-293 327.88,-293 327.88,-287 333.88,-281 339.88,-281 339.88,-281 451.12,-281 451.12,-281 457.12,-281 463.12,-287 463.12,-293 463.12,-293 463.12,-305 463.12,-305 463.12,-311 457.12,-317 451.12,-317"/>
<text text-anchor="middle" x="395.5" y="-293.95" font-family="Times New Roman,serif" font-size="14.00">12: get_order_status()</text>
</g>
<!-- node_60459a44 -->
<g id="node27" class="node">
<title>node_60459a44</title>
<path fill="#966f33" stroke="black" d="M452.25,-1476C452.25,-1476 338.75,-1476 338.75,-1476 332.75,-1476 326.75,-1470 326.75,-1464 326.75,-1464 326.75,-1452 326.75,-1452 326.75,-1446 332.75,-1440 338.75,-1440 338.75,-1440 452.25,-1440 452.25,-1440 458.25,-1440 464.25,-1446 464.25,-1452 464.25,-1452 464.25,-1464 464.25,-1464 464.25,-1470 458.25,-1476 452.25,-1476"/>
<text text-anchor="middle" x="395.5" y="-1452.95" font-family="Times New Roman,serif" font-size="14.00">7: get_price_for_sku()</text>
</g>
<!-- node_60459a44&#45;&gt;node_0879617d -->
<g id="edge23" class="edge">
<title>node_60459a44&#45;&gt;node_0879617d</title>
<path fill="none" stroke="#f0e442" stroke-width="2" d="M461.75,-1439.77C461.75,-1401.51 461.75,-1316.33 461.75,-1316.33 461.75,-1316.33 569.43,-1316.33 569.43,-1316.33"/>
<polygon fill="#f0e442" stroke="#f0e442" stroke-width="2" points="569.43,-1319.83 579.43,-1316.33 569.43,-1312.83 569.43,-1319.83"/>
</g>
<!-- node_60459a44&#45;&gt;node_033fd425 -->
<g id="edge24" class="edge">
<title>node_60459a44&#45;&gt;node_033fd425</title>
<path fill="none" stroke="#f0e442" stroke-width="2" d="M458.75,-1439.87C458.75,-1385.42 458.75,-1227 458.75,-1227 458.75,-1227 589.93,-1227 589.93,-1227"/>
<polygon fill="#f0e442" stroke="#f0e442" stroke-width="2" points="589.93,-1230.5 599.93,-1227 589.93,-1223.5 589.93,-1230.5"/>
</g>
<!-- node_2ac77ce2 -->
<g id="node28" class="node">
<title>node_2ac77ce2</title>
<path fill="#cccccc" stroke="black" d="M456.38,-711C456.38,-711 334.62,-711 334.62,-711 328.62,-711 322.62,-705 322.62,-699 322.62,-699 322.62,-687 322.62,-687 322.62,-681 328.62,-675 334.62,-675 334.62,-675 456.38,-675 456.38,-675 462.38,-675 468.38,-681 468.38,-687 468.38,-687 468.38,-699 468.38,-699 468.38,-705 462.38,-711 456.38,-711"/>
<text text-anchor="middle" x="395.5" y="-687.95" font-family="Times New Roman,serif" font-size="14.00">7: get_product_details()</text>
</g>
<!-- node_2ac77ce2&#45;&gt;node_f33a931b -->
<g id="edge25" class="edge">
<title>node_2ac77ce2&#45;&gt;node_f33a931b</title>
<path fill="none" stroke="#56b4e9" stroke-width="2" d="M468.66,-687C605.79,-687 887.75,-687 887.75,-687 887.75,-687 887.75,-994.75 887.75,-994.75"/>
<polygon fill="#56b4e9" stroke="#56b4e9" stroke-width="2" points="884.25,-994.75 887.75,-1004.75 891.25,-994.75 884.25,-994.75"/>
</g>
<!-- node_2ac77ce2&#45;&gt;node_033fd425 -->
<g id="edge26" class="edge">
<title>node_2ac77ce2&#45;&gt;node_033fd425</title>
<path fill="none" stroke="#56b4e9" stroke-width="2" d="M468.81,-699C506.56,-699 544.75,-699 544.75,-699 544.75,-699 544.75,-1202.33 544.75,-1202.33 544.75,-1202.33 590.13,-1202.33 590.13,-1202.33"/>
<polygon fill="#56b4e9" stroke="#56b4e9" stroke-width="2" points="590.13,-1205.83 600.13,-1202.33 590.13,-1198.83 590.13,-1205.83"/>
</g>
<!-- node_c0ea9a12 -->
<g id="node29" class="node">
<title>node_c0ea9a12</title>
<path fill="#966f33" stroke="black" d="M442.12,-1391C442.12,-1391 348.88,-1391 348.88,-1391 342.88,-1391 336.88,-1385 336.88,-1379 336.88,-1379 336.88,-1367 336.88,-1367 336.88,-1361 342.88,-1355 348.88,-1355 348.88,-1355 442.12,-1355 442.12,-1355 448.12,-1355 454.12,-1361 454.12,-1367 454.12,-1367 454.12,-1379 454.12,-1379 454.12,-1385 448.12,-1391 442.12,-1391"/>
<text text-anchor="middle" x="395.5" y="-1367.95" font-family="Times New Roman,serif" font-size="14.00">7: list_categories()</text>
</g>
<!-- node_c0ea9a12&#45;&gt;node_033fd425 -->
<g id="edge27" class="edge">
<title>node_c0ea9a12&#45;&gt;node_033fd425</title>
<path fill="none" stroke="#56b4e9" stroke-width="2" d="M454.42,-1373C455.91,-1373 456.75,-1373 456.75,-1373 456.75,-1373 456.75,-1225 456.75,-1225 456.75,-1225 589.9,-1225 589.9,-1225"/>
<polygon fill="#56b4e9" stroke="#56b4e9" stroke-width="2" points="589.9,-1228.5 599.9,-1225 589.9,-1221.5 589.9,-1228.5"/>
</g>
<!-- node_4d2e4ff2 -->
<g id="node30" class="node">
<title>node_4d2e4ff2</title>
<path fill="#966f33" stroke="black" d="M438,-1306C438,-1306 353,-1306 353,-1306 347,-1306 341,-1300 341,-1294 341,-1294 341,-1282 341,-1282 341,-1276 347,-1270 353,-1270 353,-1270 438,-1270 438,-1270 444,-1270 450,-1276 450,-1282 450,-1282 450,-1294 450,-1294 450,-1300 444,-1306 438,-1306"/>
<text text-anchor="middle" x="395.5" y="-1282.95" font-family="Times New Roman,serif" font-size="14.00">7: list_products()</text>
</g>
<!-- node_4d2e4ff2&#45;&gt;node_033fd425 -->
<g id="edge28" class="edge">
<title>node_4d2e4ff2&#45;&gt;node_033fd425</title>
<path fill="none" stroke="#56b4e9" stroke-width="2" d="M395.75,-1269.55C395.75,-1250.33 395.75,-1223 395.75,-1223 395.75,-1223 589.99,-1223 589.99,-1223"/>
<polygon fill="#56b4e9" stroke="#56b4e9" stroke-width="2" points="589.99,-1226.5 599.99,-1223 589.99,-1219.5 589.99,-1226.5"/>
</g>
<!-- node_b861b2a8 -->
<g id="node31" class="node">
<title>node_b861b2a8</title>
<path fill="#966f33" stroke="black" d="M474.75,-1221C474.75,-1221 316.25,-1221 316.25,-1221 310.25,-1221 304.25,-1215 304.25,-1209 304.25,-1209 304.25,-1197 304.25,-1197 304.25,-1191 310.25,-1185 316.25,-1185 316.25,-1185 474.75,-1185 474.75,-1185 480.75,-1185 486.75,-1191 486.75,-1197 486.75,-1197 486.75,-1209 486.75,-1209 486.75,-1215 480.75,-1221 474.75,-1221"/>
<text text-anchor="middle" x="395.5" y="-1197.95" font-family="Times New Roman,serif" font-size="14.00">7: list_products_by_category()</text>
</g>
<!-- node_b861b2a8&#45;&gt;node_033fd425 -->
<g id="edge29" class="edge">
<title>node_b861b2a8&#45;&gt;node_033fd425</title>
<path fill="none" stroke="#000000" stroke-width="2" d="M487.2,-1214.78C487.2,-1214.78 590.17,-1214.78 590.17,-1214.78"/>
<polygon fill="#000000" stroke="#000000" stroke-width="2" points="590.17,-1218.28 600.17,-1214.78 590.17,-1211.28 590.17,-1218.28"/>
</g>
<!-- node_c2d1fd63 -->
<g id="node32" class="node">
<title>node_c2d1fd63</title>
<path fill="#966f33" stroke="black" d="M456.38,-1136C456.38,-1136 334.62,-1136 334.62,-1136 328.62,-1136 322.62,-1130 322.62,-1124 322.62,-1124 322.62,-1112 322.62,-1112 322.62,-1106 328.62,-1100 334.62,-1100 334.62,-1100 456.38,-1100 456.38,-1100 462.38,-1100 468.38,-1106 468.38,-1112 468.38,-1112 468.38,-1124 468.38,-1124 468.38,-1130 462.38,-1136 456.38,-1136"/>
<text text-anchor="middle" x="395.5" y="-1112.95" font-family="Times New Roman,serif" font-size="14.00">7: list_products_count()</text>
</g>
<!-- node_c2d1fd63&#45;&gt;node_033fd425 -->
<g id="edge30" class="edge">
<title>node_c2d1fd63&#45;&gt;node_033fd425</title>
<path fill="none" stroke="#009e73" stroke-width="2" d="M468.52,-1118C500.01,-1118 529.75,-1118 529.75,-1118 529.75,-1118 529.75,-1211.67 529.75,-1211.67 529.75,-1211.67 589.95,-1211.67 589.95,-1211.67"/>
<polygon fill="#009e73" stroke="#009e73" stroke-width="2" points="589.95,-1215.17 599.95,-1211.67 589.95,-1208.17 589.95,-1215.17"/>
</g>
<!-- node_532f4db3 -->
<g id="node33" class="node">
<title>node_532f4db3</title>
<path fill="#966f33" stroke="black" d="M477,-1051C477,-1051 314,-1051 314,-1051 308,-1051 302,-1045 302,-1039 302,-1039 302,-1027 302,-1027 302,-1021 308,-1015 314,-1015 314,-1015 477,-1015 477,-1015 483,-1015 489,-1021 489,-1027 489,-1027 489,-1039 489,-1039 489,-1045 483,-1051 477,-1051"/>
<text text-anchor="middle" x="395.5" y="-1027.95" font-family="Times New Roman,serif" font-size="14.00">7: list_supported_destinations()</text>
</g>
<!-- node_532f4db3&#45;&gt;node_863ad4d6 -->
<g id="edge31" class="edge">
<title>node_532f4db3&#45;&gt;node_863ad4d6</title>
<path fill="none" stroke="#009e73" stroke-width="2" d="M477.75,-1051.3C477.75,-1085.79 477.75,-1157 477.75,-1157 477.75,-1157 550.66,-1157 550.66,-1157"/>
<polygon fill="#009e73" stroke="#009e73" stroke-width="2" points="550.66,-1160.5 560.66,-1157 550.66,-1153.5 550.66,-1160.5"/>
</g>
<!-- node_9a96423f -->
<g id="node34" class="node">
<title>node_9a96423f</title>
<path fill="#966f33" stroke="black" d="M436.12,-626C436.12,-626 354.88,-626 354.88,-626 348.88,-626 342.88,-620 342.88,-614 342.88,-614 342.88,-602 342.88,-602 342.88,-596 348.88,-590 354.88,-590 354.88,-590 436.12,-590 436.12,-590 442.12,-590 448.12,-596 448.12,-602 448.12,-602 448.12,-614 448.12,-614 448.12,-620 442.12,-626 436.12,-626"/>
<text text-anchor="middle" x="395.5" y="-602.95" font-family="Times New Roman,serif" font-size="14.00">7: list_variants()</text>
</g>
<!-- node_9a96423f&#45;&gt;node_f33a931b -->
<g id="edge32" class="edge">
<title>node_9a96423f&#45;&gt;node_f33a931b</title>
<path fill="none" stroke="#cc79a7" stroke-width="2" d="M448.28,-602C585.11,-602 940.75,-602 940.75,-602 940.75,-602 940.75,-994.48 940.75,-994.48"/>
<polygon fill="#cc79a7" stroke="#cc79a7" stroke-width="2" points="937.25,-994.48 940.75,-1004.48 944.25,-994.48 937.25,-994.48"/>
</g>
<!-- node_9a96423f&#45;&gt;node_033fd425 -->
<g id="edge33" class="edge">
<title>node_9a96423f&#45;&gt;node_033fd425</title>
<path fill="none" stroke="#cc79a7" stroke-width="2" d="M448.58,-614C493.2,-614 549.75,-614 549.75,-614 549.75,-614 549.75,-1199.22 549.75,-1199.22 549.75,-1199.22 590.01,-1199.22 590.01,-1199.22"/>
<polygon fill="#cc79a7" stroke="#cc79a7" stroke-width="2" points="590.01,-1202.72 600.01,-1199.22 590.01,-1195.72 590.01,-1202.72"/>
</g>
<!-- node_4002af42 -->
<g id="node35" class="node">
<title>node_4002af42</title>
<path fill="#6db33f" stroke="black" d="M701.5,-317C701.5,-317 620.25,-317 620.25,-317 614.25,-317 608.25,-311 608.25,-305 608.25,-305 608.25,-293 608.25,-293 608.25,-287 614.25,-281 620.25,-281 620.25,-281 701.5,-281 701.5,-281 707.5,-281 713.5,-287 713.5,-293 713.5,-293 713.5,-305 713.5,-305 713.5,-311 707.5,-317 701.5,-317"/>
<text text-anchor="middle" x="660.88" y="-293.95" font-family="Times New Roman,serif" font-size="14.00">6: init_logging()</text>
</g>
<!-- node_628e371a -->
<g id="node36" class="node">
<title>node_628e371a</title>
<path fill="#966f33" stroke="black" d="M162,-232C162,-232 104,-232 104,-232 98,-232 92,-226 92,-220 92,-220 92,-208 92,-208 92,-202 98,-196 104,-196 104,-196 162,-196 162,-196 168,-196 174,-202 174,-208 174,-208 174,-220 174,-220 174,-226 168,-232 162,-232"/>
<text text-anchor="middle" x="133" y="-208.95" font-family="Times New Roman,serif" font-size="14.00">0: (global)()</text>
</g>
<!-- node_25ff360b -->
<g id="node38" class="node">
<title>node_25ff360b</title>
<path fill="#cccccc" stroke="black" d="M415.5,-232C415.5,-232 375.5,-232 375.5,-232 369.5,-232 363.5,-226 363.5,-220 363.5,-220 363.5,-208 363.5,-208 363.5,-202 369.5,-196 375.5,-196 375.5,-196 415.5,-196 415.5,-196 421.5,-196 427.5,-202 427.5,-208 427.5,-208 427.5,-220 427.5,-220 427.5,-226 421.5,-232 415.5,-232"/>
<text text-anchor="middle" x="395.5" y="-208.95" font-family="Times New Roman,serif" font-size="14.00">38: run()</text>
</g>
<!-- node_628e371a&#45;&gt;node_25ff360b -->
<g id="edge34" class="edge">
<title>node_628e371a&#45;&gt;node_25ff360b</title>
<path fill="none" stroke="#56b4e9" stroke-width="2" d="M174.3,-214C174.3,-214 350.1,-214 350.1,-214"/>
<polygon fill="#56b4e9" stroke="#56b4e9" stroke-width="2" points="350.1,-217.5 360.1,-214 350.1,-210.5 350.1,-217.5"/>
</g>
<!-- node_b704e5cb -->
<g id="node37" class="node">
<title>node_b704e5cb</title>
<path fill="#6db33f" stroke="black" d="M722.88,-232C722.88,-232 598.88,-232 598.88,-232 592.88,-232 586.88,-226 586.88,-220 586.88,-220 586.88,-208 586.88,-208 586.88,-202 592.88,-196 598.88,-196 598.88,-196 722.88,-196 722.88,-196 728.88,-196 734.88,-202 734.88,-208 734.88,-208 734.88,-220 734.88,-220 734.88,-226 728.88,-232 722.88,-232"/>
<text text-anchor="middle" x="660.88" y="-208.95" font-family="Times New Roman,serif" font-size="14.00">32: _handle_tool_calls()</text>
</g>
<!-- node_25ff360b&#45;&gt;node_263a1ac4 -->
<g id="edge35" class="edge">
<title>node_25ff360b&#45;&gt;node_263a1ac4</title>
<path fill="none" stroke="#009e73" stroke-width="2" d="M427.75,-214C475.33,-214 558.75,-214 558.75,-214 558.75,-214 558.75,-1074 558.75,-1074 558.75,-1074 602.46,-1074 602.46,-1074"/>
<polygon fill="#009e73" stroke="#009e73" stroke-width="2" points="602.46,-1077.5 612.46,-1074 602.46,-1070.5 602.46,-1077.5"/>
</g>
<!-- node_25ff360b&#45;&gt;node_dd5572a5 -->
<g id="edge36" class="edge">
<title>node_25ff360b&#45;&gt;node_dd5572a5</title>
<path fill="none" stroke="#009e73" stroke-width="2" d="M384.75,-195.59C384.75,-151.22 384.75,-42 384.75,-42 384.75,-42 605.31,-42 605.31,-42"/>
<polygon fill="#009e73" stroke="#009e73" stroke-width="2" points="605.31,-45.5 615.31,-42 605.31,-38.5 605.31,-45.5"/>
</g>
<!-- node_25ff360b&#45;&gt;node_f51090c8 -->
<g id="edge37" class="edge">
<title>node_25ff360b&#45;&gt;node_f51090c8</title>
<path fill="none" stroke="#009e73" stroke-width="2" d="M405.75,-195.56C405.75,-162.38 405.75,-96 405.75,-96 405.75,-96 598.35,-96 598.35,-96"/>
<polygon fill="#009e73" stroke="#009e73" stroke-width="2" points="598.35,-99.5 608.35,-96 598.35,-92.5 598.35,-99.5"/>
</g>
<!-- node_25ff360b&#45;&gt;node_4002af42 -->
<g id="edge38" class="edge">
<title>node_25ff360b&#45;&gt;node_4002af42</title>
<path fill="none" stroke="#009e73" stroke-width="2" d="M427.83,-223C451.59,-223 479.75,-223 479.75,-223 479.75,-223 479.75,-299 479.75,-299 479.75,-299 594.97,-299 594.97,-299"/>
<polygon fill="#009e73" stroke="#009e73" stroke-width="2" points="594.97,-302.5 604.97,-299 594.97,-295.5 594.97,-302.5"/>
</g>
<!-- node_25ff360b&#45;&gt;node_b704e5cb -->
<g id="edge39" class="edge">
<title>node_25ff360b&#45;&gt;node_b704e5cb</title>
<path fill="none" stroke="#009e73" stroke-width="2" d="M427.77,-205C427.77,-205 573.4,-205 573.4,-205"/>
<polygon fill="#009e73" stroke="#009e73" stroke-width="2" points="573.4,-208.5 583.4,-205 573.4,-201.5 573.4,-208.5"/>
</g>
<!-- node_921db1d1 -->
<g id="node39" class="node">
<title>node_921db1d1</title>
<path fill="#6db33f" stroke="black" d="M694.38,-541C694.38,-541 627.38,-541 627.38,-541 621.38,-541 615.38,-535 615.38,-529 615.38,-529 615.38,-517 615.38,-517 615.38,-511 621.38,-505 627.38,-505 627.38,-505 694.38,-505 694.38,-505 700.38,-505 706.38,-511 706.38,-517 706.38,-517 706.38,-529 706.38,-529 706.38,-535 700.38,-541 694.38,-541"/>
<text text-anchor="middle" x="660.88" y="-517.95" font-family="Times New Roman,serif" font-size="14.00">6: _matches()</text>
</g>
<!-- node_40829d67 -->
<g id="node40" class="node">
<title>node_40829d67</title>
<path fill="#cccccc" stroke="black" d="M450.38,-541C450.38,-541 340.62,-541 340.62,-541 334.62,-541 328.62,-535 328.62,-529 328.62,-529 328.62,-517 328.62,-517 328.62,-511 334.62,-505 340.62,-505 340.62,-505 450.38,-505 450.38,-505 456.38,-505 462.38,-511 462.38,-517 462.38,-517 462.38,-529 462.38,-529 462.38,-535 456.38,-541 450.38,-541"/>
<text text-anchor="middle" x="395.5" y="-517.95" font-family="Times New Roman,serif" font-size="14.00">18: search_products()</text>
</g>
<!-- node_40829d67&#45;&gt;node_033fd425 -->
<g id="edge40" class="edge">
<title>node_40829d67&#45;&gt;node_033fd425</title>
<path fill="none" stroke="#cc79a7" stroke-width="2" d="M462.61,-529C505.74,-529 553.75,-529 553.75,-529 553.75,-529 553.75,-1196.11 553.75,-1196.11 553.75,-1196.11 589.9,-1196.11 589.9,-1196.11"/>
<polygon fill="#cc79a7" stroke="#cc79a7" stroke-width="2" points="589.9,-1199.61 599.9,-1196.11 589.9,-1192.61 589.9,-1199.61"/>
</g>
<!-- node_40829d67&#45;&gt;node_921db1d1 -->
<g id="edge41" class="edge">
<title>node_40829d67&#45;&gt;node_921db1d1</title>
<path fill="none" stroke="#cc79a7" stroke-width="2" d="M462.81,-517C462.81,-517 601.91,-517 601.91,-517"/>
<polygon fill="#cc79a7" stroke="#cc79a7" stroke-width="2" points="601.91,-520.5 611.91,-517 601.91,-513.5 601.91,-520.5"/>
</g>
<!-- node_b282cef1 -->
<g id="node41" class="node">
<title>node_b282cef1</title>
<path fill="#cccccc" stroke="black" d="M457.88,-966C457.88,-966 333.12,-966 333.12,-966 327.12,-966 321.12,-960 321.12,-954 321.12,-954 321.12,-942 321.12,-942 321.12,-936 327.12,-930 333.12,-930 333.12,-930 457.88,-930 457.88,-930 463.88,-930 469.88,-936 469.88,-942 469.88,-942 469.88,-954 469.88,-954 469.88,-960 463.88,-966 457.88,-966"/>
<text text-anchor="middle" x="395.5" y="-942.95" font-family="Times New Roman,serif" font-size="14.00">7: suggest_alternatives()</text>
</g>
<!-- node_b282cef1&#45;&gt;node_033fd425 -->
<g id="edge42" class="edge">
<title>node_b282cef1&#45;&gt;node_033fd425</title>
<path fill="none" stroke="#e69f00" stroke-width="2" d="M470.02,-948C503.12,-948 534.75,-948 534.75,-948 534.75,-948 534.75,-1208.56 534.75,-1208.56 534.75,-1208.56 589.95,-1208.56 589.95,-1208.56"/>
<polygon fill="#e69f00" stroke="#e69f00" stroke-width="2" points="589.95,-1212.06 599.95,-1208.56 589.95,-1205.06 589.95,-1212.06"/>
</g>
<!-- node_21fdfe94 -->
<g id="node42" class="node">
<title>node_21fdfe94</title>
<path fill="#966f33" stroke="black" d="M187.5,-711C187.5,-711 78.5,-711 78.5,-711 72.5,-711 66.5,-705 66.5,-699 66.5,-699 66.5,-687 66.5,-687 66.5,-681 72.5,-675 78.5,-675 78.5,-675 187.5,-675 187.5,-675 193.5,-675 199.5,-681 199.5,-687 199.5,-687 199.5,-699 199.5,-699 199.5,-705 193.5,-711 187.5,-711"/>
<text text-anchor="middle" x="133" y="-687.95" font-family="Times New Roman,serif" font-size="14.00">121: call_local_tool()</text>
</g>
<!-- node_21fdfe94&#45;&gt;node_622308b8 -->
<g id="edge43" class="edge">
<title>node_21fdfe94&#45;&gt;node_622308b8</title>
<path fill="none" stroke="#f0e442" stroke-width="2" d="M132.75,-711.15C132.75,-834.33 132.75,-1543 132.75,-1543 132.75,-1543 317.52,-1543 317.52,-1543"/>
<polygon fill="#f0e442" stroke="#f0e442" stroke-width="2" points="317.52,-1546.5 327.52,-1543 317.52,-1539.5 317.52,-1546.5"/>
</g>
<!-- node_21fdfe94&#45;&gt;node_12a05c63 -->
<g id="edge44" class="edge">
<title>node_21fdfe94&#45;&gt;node_12a05c63</title>
<path fill="none" stroke="#f0e442" stroke-width="2" d="M186.75,-674.66C186.75,-616.19 186.75,-438 186.75,-438 186.75,-438 325.43,-438 325.43,-438"/>
<polygon fill="#f0e442" stroke="#f0e442" stroke-width="2" points="325.43,-441.5 335.43,-438 325.43,-434.5 325.43,-441.5"/>
</g>
<!-- node_21fdfe94&#45;&gt;node_01271f6c -->
<g id="edge45" class="edge">
<title>node_21fdfe94&#45;&gt;node_01271f6c</title>
<path fill="none" stroke="#f0e442" stroke-width="2" d="M99.75,-711.26C99.75,-841.78 99.75,-1628 99.75,-1628 99.75,-1628 319.39,-1628 319.39,-1628"/>
<polygon fill="#f0e442" stroke="#f0e442" stroke-width="2" points="319.39,-1631.5 329.39,-1628 319.39,-1624.5 319.39,-1631.5"/>
</g>
<!-- node_21fdfe94&#45;&gt;node_6fd2c11b -->
<g id="edge46" class="edge">
<title>node_21fdfe94&#45;&gt;node_6fd2c11b</title>
<path fill="none" stroke="#f0e442" stroke-width="2" d="M180.75,-674.53C180.75,-596.63 180.75,-299 180.75,-299 180.75,-299 314.52,-299 314.52,-299"/>
<polygon fill="#f0e442" stroke="#f0e442" stroke-width="2" points="314.52,-302.5 324.52,-299 314.52,-295.5 314.52,-302.5"/>
</g>
<!-- node_21fdfe94&#45;&gt;node_2ac77ce2 -->
<g id="edge47" class="edge">
<title>node_21fdfe94&#45;&gt;node_2ac77ce2</title>
<path fill="none" stroke="#f0e442" stroke-width="2" d="M199.92,-693C199.92,-693 309.21,-693 309.21,-693"/>
<polygon fill="#f0e442" stroke="#f0e442" stroke-width="2" points="309.21,-696.5 319.21,-693 309.21,-689.5 309.21,-696.5"/>
</g>
<!-- node_21fdfe94&#45;&gt;node_40829d67 -->
<g id="edge48" class="edge">
<title>node_21fdfe94&#45;&gt;node_40829d67</title>
<path fill="none" stroke="#f0e442" stroke-width="2" d="M192.75,-674.81C192.75,-630.95 192.75,-523 192.75,-523 192.75,-523 315.24,-523 315.24,-523"/>
<polygon fill="#f0e442" stroke="#f0e442" stroke-width="2" points="315.24,-526.5 325.24,-523 315.24,-519.5 315.24,-526.5"/>
</g>
<!-- node_21fdfe94&#45;&gt;node_b282cef1 -->
<g id="edge49" class="edge">
<title>node_21fdfe94&#45;&gt;node_b282cef1</title>
<path fill="none" stroke="#f0e442" stroke-width="2" d="M165.75,-711.34C165.75,-769.81 165.75,-948 165.75,-948 165.75,-948 307.88,-948 307.88,-948"/>
<polygon fill="#f0e442" stroke="#f0e442" stroke-width="2" points="307.88,-951.5 317.88,-948 307.88,-944.5 307.88,-951.5"/>
</g>
<!-- node_e520e823 -->
<g id="node43" class="node">
<title>node_e520e823</title>
<path fill="#966f33" stroke="black" d="M457.5,-881C457.5,-881 333.5,-881 333.5,-881 327.5,-881 321.5,-875 321.5,-869 321.5,-869 321.5,-857 321.5,-857 321.5,-851 327.5,-845 333.5,-845 333.5,-845 457.5,-845 457.5,-845 463.5,-845 469.5,-851 469.5,-857 469.5,-857 469.5,-869 469.5,-869 469.5,-875 463.5,-881 457.5,-881"/>
<text text-anchor="middle" x="395.5" y="-857.95" font-family="Times New Roman,serif" font-size="14.00">7: validate_destination()</text>
</g>
<!-- node_e520e823&#45;&gt;node_9c8ae3ad -->
<g id="edge50" class="edge">
<title>node_e520e823&#45;&gt;node_9c8ae3ad</title>
<path fill="none" stroke="#009e73" stroke-width="2" d="M469.77,-863C520.57,-863 578.75,-863 578.75,-863 578.75,-863 578.75,-994.59 578.75,-994.59"/>
<polygon fill="#009e73" stroke="#009e73" stroke-width="2" points="575.25,-994.59 578.75,-1004.59 582.25,-994.59 575.25,-994.59"/>
</g>
<!-- node_7362c20e -->
<g id="node44" class="node">
<title>node_7362c20e</title>
<path fill="#966f33" stroke="black" d="M437.25,-796C437.25,-796 353.75,-796 353.75,-796 347.75,-796 341.75,-790 341.75,-784 341.75,-784 341.75,-772 341.75,-772 341.75,-766 347.75,-760 353.75,-760 353.75,-760 437.25,-760 437.25,-760 443.25,-760 449.25,-766 449.25,-772 449.25,-772 449.25,-784 449.25,-784 449.25,-790 443.25,-796 437.25,-796"/>
<text text-anchor="middle" x="395.5" y="-772.95" font-family="Times New Roman,serif" font-size="14.00">7: validate_sku()</text>
</g>
<!-- node_7362c20e&#45;&gt;node_033fd425 -->
<g id="edge51" class="edge">
<title>node_7362c20e&#45;&gt;node_033fd425</title>
<path fill="none" stroke="#d55e00" stroke-width="2" d="M449.62,-778C490.56,-778 539.75,-778 539.75,-778 539.75,-778 539.75,-1205.44 539.75,-1205.44 539.75,-1205.44 590.12,-1205.44 590.12,-1205.44"/>
<polygon fill="#d55e00" stroke="#d55e00" stroke-width="2" points="590.12,-1208.94 600.12,-1205.44 590.12,-1201.94 590.12,-1208.94"/>
</g>
</g>
</svg>
